<?xml version="1.0" standalone="no"?>
<!DOCTYPE svg PUBLIC "-//W3C//DTD SVG 20010904//EN"
 "http://www.w3.org/TR/2001/REC-SVG-20010904/DTD/svg10.dtd">
<svg version="1.0" xmlns="http://www.w3.org/2000/svg"
 width="400.000000pt" height="400.000000pt" viewBox="0 0 400.000000 400.000000"
 preserveAspectRatio="xMidYMid meet">
<metadata>
Created by potrace 1.14, written by Peter Selinger 2001-2017
</metadata>
<g transform="translate(0.000000,400.000000) scale(0.100000,-0.100000)"
fill="#000000" stroke="none">
<path d="M2202 3733 c-10 -4 -8 -8 5 -19 17 -13 17 -13 -5 -14 -12 0 -30 -4
-40 -9 -9 -5 -52 -18 -94 -30 -169 -46 -271 -119 -379 -272 -59 -82 -77 -119
-128 -257 -54 -148 -85 -323 -72 -407 11 -74 18 -102 27 -117 5 -8 2 -9 -9 -5
-10 3 -17 2 -17 -4 0 -6 -9 -8 -20 -4 -16 5 -20 2 -20 -14 0 -15 5 -19 16 -14
13 5 14 2 6 -13 -18 -33 -32 -86 -25 -97 3 -5 1 -7 -4 -4 -7 5 -11 -9 -10 -39
0 -29 -5 -49 -14 -55 -12 -8 -12 -10 0 -18 8 -5 10 -14 6 -22 -6 -9 -3 -11 9
-6 13 5 11 -3 -9 -40 -19 -33 -22 -44 -11 -40 19 8 19 9 1 -43 -14 -39 -14
-41 1 -29 14 11 15 9 9 -27 -5 -29 -4 -35 4 -24 8 12 11 7 11 -23 0 -23 4 -36
10 -32 8 5 15 -31 11 -57 0 -5 3 -8 8 -8 4 0 11 -16 14 -34 3 -19 13 -50 21
-68 17 -37 46 -117 46 -127 -1 -3 -7 5 -16 19 -14 23 -14 23 -9 3 5 -20 2 -23
-21 -23 -15 0 -25 -3 -21 -6 3 -3 21 -6 40 -6 26 0 36 -5 40 -19 7 -28 111
-73 216 -94 50 -11 91 -21 91 -24 0 -3 29 -7 65 -8 70 -2 183 -27 227 -49 25
-13 34 -11 114 26 48 22 93 45 101 52 8 6 29 13 46 15 18 2 44 12 59 23 16 12
34 17 44 13 13 -5 15 -3 9 7 -6 10 -4 12 9 7 13 -5 17 -3 13 5 -3 10 10 12 56
8 36 -3 62 -10 65 -18 3 -9 -3 -10 -23 -2 -14 5 -36 10 -48 9 -14 -1 -9 -5 16
-11 20 -6 37 -14 37 -18 0 -5 -17 -7 -37 -4 l-38 5 30 -15 30 -15 -45 5 -45 5
33 -15 c38 -18 43 -30 6 -16 -33 13 -37 13 -31 -3 4 -10 -2 -13 -21 -10 -15 2
-21 0 -14 -3 21 -10 13 -22 -10 -16 -20 5 -21 3 -10 -10 10 -13 8 -15 -15 -10
-26 5 -27 4 -13 -13 14 -17 14 -17 -7 -7 -36 20 -40 13 -8 -13 17 -14 25 -25
20 -25 -6 0 -15 4 -20 9 -6 5 -21 12 -35 15 -24 7 -25 7 -5 -9 19 -16 19 -16
-10 -9 -27 7 -29 6 -16 -10 13 -15 12 -16 -14 -6 -25 9 -26 9 -15 -5 16 -20 6
-19 -25 1 -26 17 -34 7 -12 -15 6 -8 -1 -5 -18 5 -27 18 -29 18 -22 1 5 -14 0
-13 -27 8 -18 14 -36 22 -39 19 -3 -4 -25 3 -47 15 -23 12 -45 19 -50 16 -5
-3 -24 4 -42 15 -40 24 -55 26 -37 3 11 -13 5 -12 -24 5 -41 23 -62 28 -52 12
9 -14 -5 -12 -35 5 -35 20 -59 20 -34 -1 10 -9 2 -6 -19 5 -47 26 -64 27 -46
4 13 -17 13 -17 -5 -3 -13 10 -20 12 -23 4 -5 -14 -63 12 -63 27 0 6 -5 7 -10
4 -6 -4 -7 -11 -3 -18 3 -6 -7 -1 -24 11 -34 24 -48 28 -37 10 5 -8 2 -9 -12
-4 -22 9 -21 9 -283 2 -107 -3 -196 -8 -199 -10 -2 -3 11 -14 29 -26 27 -16
45 -19 84 -15 28 2 93 7 145 10 89 5 99 4 145 -20 28 -14 77 -37 110 -51 82
-34 149 -68 153 -76 2 -4 10 -4 18 -1 8 3 14 -1 14 -10 0 -36 175 -70 293 -56
170 19 190 20 198 7 6 -9 9 -7 10 7 l0 20 9 -20 c7 -17 9 -17 9 -2 1 19 21 24
22 5 0 -7 4 -4 9 7 l9 20 1 -20 1 -20 9 20 c5 11 9 15 9 8 2 -21 41 -10 42 12
0 20 0 20 9 0 8 -18 9 -19 9 -1 1 12 6 16 16 12 8 -3 15 -1 15 4 0 5 9 7 20 5
11 -2 20 1 20 6 0 6 5 7 10 4 6 -3 10 0 11 7 1 7 5 2 9 -12 l8 -25 1 28 c1 16
5 26 11 22 6 -3 10 -2 10 4 0 6 7 8 15 5 8 -4 17 1 21 10 3 9 12 16 19 16 20
0 75 71 75 97 0 30 -14 29 -34 -2 -9 -14 -23 -25 -32 -25 -8 0 -13 -4 -10 -9
4 -5 -4 -6 -16 -3 -21 6 -21 7 -4 10 15 3 16 6 5 14 -11 7 -9 9 7 5 19 -4 22
-1 19 22 -2 14 4 37 13 51 9 14 15 31 14 38 -2 8 2 20 8 27 7 8 9 23 6 33 -4
11 0 24 7 31 8 6 12 22 10 35 -3 15 1 25 11 29 11 4 16 1 17 -11 1 -9 5 1 10
23 7 26 6 48 -1 63 -13 30 -13 35 3 29 10 -4 12 12 11 67 -1 39 -2 73 -3 76
-4 14 -20 -31 -25 -70 -8 -57 -23 -118 -48 -197 -11 -35 -17 -67 -13 -72 3 -6
-11 -3 -32 5 -30 13 -44 14 -74 5 -50 -15 -61 -13 -20 4 18 8 52 16 75 17 l41
1 -50 7 c-43 6 -45 7 -15 9 19 1 42 6 50 12 11 8 0 9 -42 5 -31 -3 -65 -9 -75
-12 -16 -5 -16 -4 -1 5 9 6 44 14 77 17 33 4 58 10 55 15 -2 4 -28 6 -57 3
-63 -5 -52 2 23 15 l55 10 -63 -3 c-71 -3 -62 9 20 24 l53 9 -58 -4 c-34 -2
-55 0 -52 6 4 5 16 9 28 9 12 0 28 4 36 9 9 6 -5 8 -35 5 l-49 -3 55 13 c51
13 53 14 20 16 -19 1 -27 4 -17 7 9 2 17 8 17 13 0 5 -8 11 -17 13 -14 4 -13
5 4 6 20 1 45 21 25 21 -5 0 -7 13 -4 28 2 16 -3 45 -12 66 -13 32 -13 38 -1
42 33 13 104 224 149 446 25 123 20 292 -14 438 -6 25 -19 88 -30 140 -18 90
-44 170 -75 230 -40 78 -176 200 -279 251 -33 16 -67 36 -76 44 -9 8 -30 17
-46 19 -64 11 -110 14 -122 9z m-126 -281 c-6 -10 34 -26 112 -46 52 -12 71
-23 104 -58 38 -41 39 -44 29 -79 -7 -22 -9 -61 -5 -92 6 -48 4 -57 -16 -77
-16 -16 -29 -21 -50 -17 -20 4 -33 1 -45 -13 -9 -10 -27 -21 -39 -24 -18 -4
-28 -20 -45 -78 -12 -40 -29 -93 -38 -117 -9 -25 -17 -57 -18 -73 -3 -58 -5
-64 -22 -65 -10 -1 -44 -5 -76 -11 -32 -5 -60 -5 -63 -1 -3 5 -2 25 2 44 6 36
6 36 -22 29 -69 -16 -154 -75 -186 -129 -4 -6 0 -34 8 -61 8 -27 13 -64 10
-81 -4 -31 13 -60 22 -35 5 17 31 42 43 42 5 0 9 -6 9 -14 0 -8 13 -40 30 -71
16 -31 28 -61 25 -65 -3 -5 1 -12 8 -17 7 -4 16 -15 20 -24 3 -10 30 -25 59
-34 29 -9 61 -27 72 -38 18 -21 18 -22 -10 -34 -33 -14 -196 -8 -230 9 -24 11
-56 75 -80 163 -9 33 -23 64 -30 70 -22 18 -35 93 -35 208 1 178 42 277 116
277 19 0 37 -4 40 -10 3 -5 27 -19 53 -31 37 -16 59 -20 102 -15 69 6 96 34
106 106 4 28 10 50 15 50 17 0 9 60 -10 77 -31 26 -121 60 -178 68 -29 4 -53
11 -53 16 0 24 63 130 102 172 30 34 59 53 98 67 61 21 73 24 66 12z m679
-317 c58 -218 77 -491 29 -413 -4 7 -3 8 5 4 9 -6 10 18 5 101 -4 59 -10 115
-14 123 -5 8 -11 38 -15 65 -4 28 -13 77 -21 110 -23 100 -15 107 11 10z
m-444 -395 c71 -18 90 -27 100 -48 11 -20 11 -26 2 -29 -7 -3 -13 -10 -13 -17
0 -7 -19 -19 -42 -26 -78 -25 -84 -23 -131 37 -41 51 -44 58 -33 84 6 16 15
28 21 26 5 -2 49 -14 96 -27z m-396 -93 c17 -16 23 -29 19 -45 -6 -20 -12 -22
-71 -22 -55 0 -64 2 -59 16 3 9 6 20 6 25 0 5 6 9 13 9 7 0 20 9 30 20 22 26
32 25 62 -3z m-353 -220 c-7 -13 -9 -5 -15 48 l-6 50 13 -45 c7 -25 11 -49 8
-53z m324 78 c12 -8 24 -12 27 -9 9 9 47 -16 47 -31 0 -16 -35 -21 -44 -6 -3
4 -19 11 -36 14 -21 5 -30 12 -30 27 0 24 8 25 36 5z m114 -45 c8 -5 11 -12 8
-16 -10 -9 -38 3 -38 16 0 12 10 13 30 0z m-416 -122 c3 -24 7 -79 9 -123 2
-61 0 -74 -7 -52 -5 15 -13 27 -17 27 -4 0 -5 8 -3 18 3 9 -4 41 -15 70 -11
28 -15 50 -10 46 5 -3 9 6 9 19 0 24 7 37 21 37 4 0 10 -19 13 -42z m1063 -80
c-3 -7 -5 -2 -5 12 0 14 2 19 5 13 2 -7 2 -19 0 -25z m-28 -462 c-2 -1 -19 -8
-36 -14 -37 -12 -45 -6 -10 8 22 9 54 13 46 6z m98 -51 c1 -5 -1 -16 -6 -24
-7 -11 -16 -11 -52 3 l-44 16 45 -5 c52 -7 47 5 -7 16 -36 7 -36 7 11 6 27 -1
51 -6 53 -12z m-241 -30 c-11 -8 -25 -15 -30 -15 -6 1 0 7 14 15 32 19 40 18
16 0z m131 9 c-3 -3 -12 -4 -19 -1 -8 3 -5 6 6 6 11 1 17 -2 13 -5z m-356
-236 c11 -21 11 -22 -4 -9 -10 7 -17 17 -17 22 0 15 9 10 21 -13z m-296 -8 c3
-5 1 -10 -4 -10 -6 0 -11 5 -11 10 0 6 2 10 4 10 3 0 8 -4 11 -10z m35 -14 c0
-3 -4 -8 -10 -11 -5 -3 -10 -1 -10 4 0 6 5 11 10 11 6 0 10 -2 10 -4z m25 -15
c3 -5 1 -12 -5 -16 -5 -3 -10 1 -10 9 0 18 6 21 15 7z m57 -33 c-7 -7 -12 -8
-12 -2 0 6 3 14 7 17 3 4 9 5 12 2 2 -3 -1 -11 -7 -17z"/>
<path d="M2827 2160 c3 -11 9 -17 14 -15 10 7 1 35 -11 35 -5 0 -6 -9 -3 -20z"/>
<path d="M1377 1931 c-4 -16 -2 -55 3 -87 11 -64 8 -73 -15 -54 -22 18 -28 7
-14 -24 10 -22 19 -26 53 -26 27 0 36 3 27 9 -10 7 -10 10 -1 13 9 3 9 8 -3
20 -10 10 -18 43 -23 92 -7 82 -18 104 -27 57z m10 -33 c-3 -8 -6 -5 -6 6 -1
11 2 17 5 13 3 -3 4 -12 1 -19z"/>
<path d="M1480 1870 c0 -5 5 -10 10 -10 6 0 10 5 10 10 0 6 -4 10 -10 10 -5 0
-10 -4 -10 -10z"/>
<path d="M1166 1783 c-4 -5 -24 -8 -44 -8 -31 0 -38 -4 -40 -23 -2 -14 3 -24
15 -28 10 -3 32 -12 50 -20 17 -8 35 -14 41 -14 11 0 119 48 112 50 -33 8 -75
8 -86 0 -7 -7 -15 -7 -18 -2 -3 6 4 13 17 17 22 8 22 8 -3 12 -14 3 -28 9 -31
14 -3 5 -9 6 -13 2z"/>
<path d="M700 1585 c-7 -8 -19 -15 -26 -15 -8 0 -14 -7 -14 -15 0 -8 -4 -15
-8 -15 -5 0 -13 -16 -19 -35 -6 -19 -9 -35 -6 -35 2 0 25 18 51 39 57 48 90
58 128 38 37 -20 99 -81 99 -99 0 -9 12 -12 40 -10 22 2 37 0 33 -4 -4 -3 0
-20 8 -36 14 -28 14 -29 -16 -54 -37 -32 -124 -208 -152 -309 -14 -52 -21
-122 -27 -272 -4 -112 -10 -205 -13 -208 -11 -11 -38 45 -93 185 -28 74 -27
51 4 -90 39 -177 47 -195 96 -236 25 -20 47 -35 49 -33 2 2 -1 33 -6 69 -6 36
-11 157 -12 270 -1 190 1 211 23 280 13 41 33 93 46 115 12 22 28 58 34 80 21
70 42 111 63 124 11 7 22 10 25 7 3 -3 -2 -47 -11 -98 -16 -88 -15 -128 4
-128 5 0 23 44 40 98 39 118 43 123 75 108 18 -8 26 -22 31 -53 3 -24 11 -43
16 -43 5 0 7 -4 4 -9 -4 -5 -2 -20 3 -32 l8 -24 7 25 c23 78 39 98 51 60 3
-11 11 -20 16 -20 32 0 82 -100 65 -129 -4 -5 -1 -13 5 -16 5 -4 8 -12 6 -19
-5 -12 2 -60 34 -251 12 -71 22 -155 22 -185 0 -38 2 -47 7 -30 5 17 9 -2 15
-65 6 -64 11 -81 15 -60 5 25 7 20 12 -29 4 -33 11 -62 15 -65 32 -23 42 -97
24 -175 -5 -21 -6 -35 -1 -30 4 5 10 18 13 29 3 11 6 -2 7 -30 l3 -50 12 60
13 60 1 -45 c1 -33 4 -41 11 -30 7 11 10 6 10 -20 0 -26 3 -31 10 -20 8 12 10
11 10 -7 0 -50 69 -89 71 -40 1 21 1 21 8 -3 4 -15 15 -26 28 -28 24 -4 31 21
23 83 -5 39 -5 40 -12 10 -3 -16 -5 -43 -3 -60 3 -16 2 -21 -2 -10 -3 11 -10
23 -17 27 -8 5 -8 16 1 39 10 27 9 37 -8 71 -11 21 -17 44 -13 50 4 7 3 8 -4
4 -8 -5 -12 2 -12 18 0 14 -4 26 -10 26 -5 0 -10 7 -10 15 0 8 5 15 11 15 5 0
7 5 4 10 -4 6 -10 8 -15 5 -4 -2 -13 9 -20 25 -7 17 -19 30 -26 30 -8 0 -14 6
-14 13 0 8 -8 24 -19 35 -10 12 -24 50 -31 84 -7 35 -18 88 -25 118 -8 30 -19
98 -25 150 -6 52 -24 149 -40 215 -36 146 -37 160 -10 145 11 -6 19 -14 18
-18 -1 -4 2 -20 7 -35 6 -21 10 -25 16 -15 6 9 9 6 9 -12 0 -20 2 -22 10 -10
8 12 10 10 10 -8 0 -15 4 -21 11 -16 8 5 10 -1 7 -19 -3 -15 -1 -24 3 -21 5 3
9 13 10 22 0 14 2 13 9 -3 7 -17 9 -17 9 -2 1 20 21 23 21 3 0 -21 21 -31 32
-15 7 10 8 6 5 -13 -2 -16 0 -28 4 -28 5 0 9 -9 9 -20 0 -18 3 -19 20 -10 17
9 20 8 20 -11 0 -11 9 -32 20 -46 11 -14 20 -20 20 -12 0 8 3 9 9 3 11 -11 20
-124 10 -124 -4 0 -12 -12 -18 -27 -8 -21 -10 -22 -7 -6 2 13 0 26 -5 29 -5 3
-9 -2 -9 -11 0 -9 -4 -14 -9 -11 -13 8 -31 -49 -31 -97 0 -21 16 -92 36 -156
20 -64 39 -123 41 -131 4 -13 4 -13 -6 0 -12 15 -12 14 5 -67 2 -13 8 -23 13
-23 5 0 7 10 4 22 -3 13 -3 20 1 17 12 -11 19 -92 7 -85 -6 4 -11 2 -11 -3 0
-6 5 -11 11 -11 6 0 8 -7 5 -16 -3 -8 -2 -13 3 -10 10 6 26 -63 17 -72 -3 -3
-6 2 -6 11 0 9 -5 19 -12 23 -8 5 -9 -2 -4 -27 4 -19 9 -41 10 -49 5 -24 61
-31 271 -33 275 -2 448 26 680 110 157 56 155 55 143 105 -5 23 -7 51 -4 62 7
26 -4 77 -15 70 -5 -3 -9 32 -9 78 1 78 2 81 15 53 13 -29 13 -29 14 -6 1 33
13 19 21 -26 8 -38 8 -38 9 -6 0 18 -3 42 -8 55 -5 13 -12 36 -16 52 -4 20 -9
26 -14 17 -5 -7 -13 12 -21 51 -7 35 -18 69 -23 76 -8 10 -7 16 4 24 11 8 11
9 -3 4 -20 -6 -24 4 -8 20 7 7 2 42 -14 108 -14 53 -23 103 -19 112 3 8 0 20
-5 27 -6 7 -10 22 -8 32 2 11 -3 34 -10 51 -11 27 -11 38 6 83 17 48 16 62 -6
43 -30 -28 -105 -45 -201 -46 -56 -1 -100 0 -98 3 3 6 -54 12 -132 14 -26 1
-37 5 -30 10 7 5 -7 6 -33 4 -45 -5 -45 -5 -17 9 15 8 32 12 38 9 5 -4 33 -9
62 -11 29 -3 53 -8 54 -12 2 -4 42 -6 90 -4 87 3 223 36 223 53 0 5 3 9 8 8
15 -2 52 14 52 23 0 5 14 21 30 35 17 13 30 35 30 47 0 12 7 31 15 43 17 24 2
44 -18 24 -6 -6 -25 -11 -43 -11 -17 0 -48 -7 -68 -15 -20 -9 -41 -13 -46 -10
-6 4 -10 1 -10 -4 0 -19 -20 -12 -21 7 0 14 -2 14 -7 2 -8 -17 -33 -20 -44 -5
-4 6 -8 2 -8 -7 0 -14 -8 -18 -36 -18 -19 0 -33 4 -30 9 6 10 -12 9 -29 -1
-14 -8 -95 -7 -90 2 2 4 -2 7 -9 7 -9 0 -12 -7 -8 -16 3 -9 2 -13 -2 -10 -4 4
-23 3 -42 -1 -23 -5 -34 -4 -35 4 0 6 -4 2 -9 -9 -5 -11 -9 -14 -9 -6 -1 7 -7
11 -16 8 -8 -4 -17 -2 -21 4 -3 6 -12 3 -21 -8 -13 -17 -14 -17 -9 0 3 9 1 17
-4 17 -6 0 -10 -4 -10 -9 0 -5 -7 -11 -14 -14 -11 -4 -13 -1 -9 11 6 15 5 15
-10 3 -15 -12 -19 -12 -31 5 -14 18 -15 18 -33 1 -21 -19 -38 -23 -28 -7 9 14
-9 12 -24 -2 -10 -11 -11 -10 -6 5 9 22 -3 22 -27 0 -18 -16 -18 -16 -11 3 7
19 6 19 -21 1 l-27 -18 12 22 12 23 -27 -18 c-27 -17 -27 -17 -16 3 13 25 3
27 -22 4 -20 -18 -25 -4 -6 15 17 17 2 15 -30 -5 l-27 -17 19 22 c25 28 7 28
-30 0 l-29 -22 24 27 c27 30 18 35 -19 11 -22 -14 -22 -12 3 10 34 32 12 36
-27 5 -15 -12 -29 -19 -32 -16 -5 4 38 36 66 49 12 5 12 7 -2 7 -10 1 -16 7
-14 14 1 6 1 9 -1 5 -3 -5 -11 -8 -19 -8 -9 0 -13 4 -9 9 8 14 -47 -3 -79 -24
-15 -10 -29 -15 -32 -13 -3 3 10 15 28 27 28 19 30 21 8 16 -14 -4 -35 -13
-47 -21 -20 -12 -22 -12 -17 1 7 16 -5 20 -22 8 -5 -5 3 4 18 20 36 34 24 35
-27 1 l-40 -27 30 33 c30 33 23 33 -27 -2 -37 -26 -45 -22 -17 8 23 25 23 26
2 15 -31 -16 -38 -14 -22 6 12 15 12 16 -1 8 -8 -4 -23 -15 -32 -23 -20 -17
-24 -3 -5 18 6 7 -1 6 -17 -4 -26 -16 -28 -17 -23 -2 5 14 3 15 -13 6 -17 -9
-19 -8 -13 7 6 15 4 16 -9 5 -13 -10 -17 -10 -21 0 -2 7 -8 10 -12 5 -17 -15
41 -44 232 -117 34 -13 59 -28 57 -32 -3 -4 3 -5 12 -1 13 5 15 3 9 -7 -5 -9
-4 -11 3 -6 6 4 24 0 39 -9 16 -9 20 -14 10 -11 -10 3 -15 2 -12 -4 3 -5 26
-12 52 -16 l46 -7 -69 -18 c-38 -9 -86 -25 -108 -34 -21 -9 -40 -14 -42 -12
-6 5 90 47 107 47 7 0 9 3 6 6 -9 9 -157 -46 -157 -58 0 -6 7 -8 15 -4 8 3 15
1 15 -3 0 -7 79 -28 128 -33 6 -1 12 -6 12 -11 0 -6 -17 -7 -42 -2 -24 4 -71
9 -104 10 -34 2 -71 8 -84 15 -15 8 -20 8 -16 1 5 -7 -7 -11 -34 -11 -23 0
-39 4 -36 9 4 5 -8 12 -26 16 -73 15 -225 80 -268 116 -16 12 -4 9 31 -10 48
-27 100 -42 189 -56 14 -2 50 -9 80 -15 93 -18 128 -21 136 -9 4 8 0 9 -15 4
-11 -3 -21 -4 -21 -1 0 8 69 42 100 50 14 3 5 -3 -19 -14 -24 -11 -42 -23 -39
-26 3 -2 30 6 59 20 30 13 46 25 36 25 -10 1 -15 6 -12 11 8 12 -69 -17 -104
-39 -27 -17 -94 -23 -84 -8 4 6 -1 8 -12 3 -15 -5 -16 -4 -5 9 14 17 35 21 25
5 -9 -15 -5 -13 64 24 48 25 59 35 45 40 -9 3 -19 4 -22 1 -3 -3 1 -5 9 -5 8
-1 3 -7 -11 -15 -33 -19 -50 -18 -26 0 11 8 16 15 10 15 -5 0 -18 -7 -28 -15
-14 -11 -16 -15 -5 -15 12 0 12 -2 -1 -10 -21 -13 -33 -12 -24 2 4 7 -15 0
-42 -16 -45 -25 -47 -25 -21 -3 16 13 57 38 93 56 35 17 64 34 64 37 0 2 -9 0
-19 -6 -30 -15 -48 -12 -25 5 17 14 16 14 -11 2 -45 -19 -117 -57 -147 -78
-34 -24 -35 -24 -52 10 -14 26 -14 30 1 42 9 8 14 9 10 3 -8 -13 46 -14 59 -1
11 11 26 9 19 -3 -10 -16 6 -11 55 16 36 20 39 24 17 19 -20 -4 -27 -2 -22 5
4 7 -7 5 -23 -4 -39 -20 -53 -20 -28 -1 11 8 14 15 7 15 -7 0 -10 4 -7 9 4 5
-4 7 -16 3 -15 -4 -19 -2 -13 7 6 10 2 11 -15 6 -17 -5 -21 -4 -15 5 9 14 8
14 -59 -28 l-39 -24 31 38 c37 45 40 58 12 51 -11 -3 -23 -1 -26 4 -9 15 -26
10 -20 -7 4 -12 0 -15 -17 -12 -17 2 -21 9 -19 26 3 21 1 23 -20 16 -13 -4
-52 -7 -88 -7 -140 2 -219 20 -204 45 4 6 3 8 -4 4 -6 -3 -26 3 -44 14 -39 24
-91 26 -108 5z m1032 -133 c14 -6 9 -12 -25 -30 l-42 -23 30 25 c36 31 23 34
-25 6 l-35 -21 28 26 c29 26 40 28 69 17z m-452 -22 c-14 -11 -29 -20 -35 -20
-5 0 1 9 15 20 14 11 30 20 35 20 6 0 -1 -9 -15 -20z m44 -1 c-4 -8 1 -9 17
-4 23 7 24 7 4 -9 -12 -9 -15 -15 -7 -16 15 0 6 -20 -9 -20 -6 0 -7 5 -3 12 5
8 2 9 -11 4 -15 -5 -16 -4 -5 9 23 28 -6 15 -49 -21 -32 -28 -45 -34 -54 -25
-8 8 -6 16 8 29 18 16 18 16 6 -1 -24 -31 0 -33 28 -2 39 42 94 74 75 44z m76
-29 c-8 -5 -19 -10 -25 -10 -5 0 -3 5 5 10 8 5 20 10 25 10 6 0 3 -5 -5 -10z
m38 -33 c-117 -70 -130 -77 -113 -59 15 16 128 82 139 82 6 0 -6 -11 -26 -23z
m632 -21 c0 -2 -8 -10 -17 -17 -16 -13 -17 -12 -4 4 13 16 21 21 21 13z m-250
-45 c21 -6 15 -10 -40 -24 -109 -28 -118 -30 -80 -12 19 9 51 20 70 25 l35 10
-40 -5 c-22 -2 -51 -6 -65 -10 -21 -4 -21 -3 5 9 32 16 74 18 115 7z m20 -31
c-34 -11 -60 -11 -35 0 11 5 29 8 40 8 16 0 15 -2 -5 -8z m-63 -16 c-3 -3 -12
-4 -19 -1 -8 3 -5 6 6 6 11 1 17 -2 13 -5z m83 -4 c-34 -11 -60 -11 -35 0 11
5 29 8 40 8 16 0 15 -2 -5 -8z m65 -9 c-11 -5 -36 -11 -55 -15 l-35 -6 35 14
c19 8 44 15 55 15 l20 0 -20 -8z m80 -6 c-28 -10 -85 -23 -85 -19 0 8 45 23
70 23 14 -1 21 -2 15 -4z m0 -25 c-27 -12 -43 -12 -25 0 8 5 22 9 30 9 10 0 8
-3 -5 -9z m165 0 c0 -5 -6 -10 -12 -10 -7 0 -24 -3 -38 -6 l-25 -6 25 15 c30
18 50 21 50 7z m-375 -23 c7 -6 2 -8 -15 -3 -14 3 -38 6 -53 6 -16 0 -26 4
-22 9 7 12 76 2 90 -12z m-220 -7 c18 -8 18 -9 -5 -9 -14 0 -34 4 -45 9 -18 8
-18 9 5 9 14 0 34 -4 45 -9z m175 -60 c31 -5 111 -17 179 -25 90 -10 129 -19
140 -31 9 -9 12 -14 6 -11 -10 5 -71 13 -170 22 -27 3 -75 8 -105 12 -30 4
-59 7 -65 8 -5 0 -15 4 -22 8 -6 4 -15 3 -18 -3 -5 -8 -11 -8 -19 0 -12 9 -45
15 -98 19 -26 2 -22 29 5 33 12 2 42 -2 67 -9 25 -7 70 -17 100 -23z m874
-272 c4 -17 2 -28 -4 -28 -5 0 -10 14 -10 32 0 36 4 35 14 -4z m-364 -18 c0
-5 -5 -10 -11 -10 -5 0 -7 5 -4 10 3 6 8 10 11 10 2 0 4 -4 4 -10z m20 -80 c4
0 11 -35 14 -77 3 -43 8 -100 12 -128 3 -28 2 -46 -2 -42 -9 9 -44 235 -42
272 1 17 1 17 5 -2 2 -13 8 -23 13 -23z m-276 -54 c9 -39 20 -149 26 -244 5
-95 17 -207 26 -249 11 -54 12 -79 5 -86 -8 -8 -11 -6 -11 6 0 9 -5 17 -10 17
-6 0 -8 -16 -4 -42 5 -30 4 -39 -4 -34 -7 4 -12 13 -12 21 0 8 -5 26 -11 42
-15 35 -15 36 -28 161 -6 56 -16 113 -23 125 -7 14 -13 77 -14 167 -1 80 0
139 3 133 10 -26 22 -12 16 20 -4 26 -2 34 10 34 11 0 20 -21 31 -71z m730 -8
c8 -27 10 -48 6 -48 -12 0 -41 91 -33 103 4 6 8 7 10 2 1 -6 9 -31 17 -57z
m-1087 -30 c-3 -8 -6 -5 -6 6 -1 11 2 17 5 13 3 -3 4 -12 1 -19z m1103 -48 c0
-5 -4 -10 -10 -10 -5 0 -10 5 -10 10 0 6 5 10 10 10 6 0 10 -4 10 -10z m-923
-42 c-3 -8 -6 -5 -6 6 -1 11 2 17 5 13 3 -3 4 -12 1 -19z m-410 -30 c-3 -8 -6
-5 -6 6 -1 11 2 17 5 13 3 -3 4 -12 1 -19z m450 -20 c-3 -8 -6 -5 -6 6 -1 11
2 17 5 13 3 -3 4 -12 1 -19z m-40 -30 c-3 -8 -6 -5 -6 6 -1 11 2 17 5 13 3 -3
4 -12 1 -19z m-380 -60 c-3 -8 -6 -5 -6 6 -1 11 2 17 5 13 3 -3 4 -12 1 -19z
m420 -20 c-3 -7 -5 -2 -5 12 0 14 2 19 5 13 2 -7 2 -19 0 -25z m930 -110 c-3
-8 -6 -5 -6 6 -1 11 2 17 5 13 3 -3 4 -12 1 -19z m-1140 -250 c-3 -8 -6 -5 -6
6 -1 11 2 17 5 13 3 -3 4 -12 1 -19z"/>
<path d="M2012 225 c0 -16 2 -22 5 -12 2 9 2 23 0 30 -3 6 -5 -1 -5 -18z"/>
<path d="M1285 1490 c-3 -6 1 -7 9 -4 18 7 21 14 7 14 -6 0 -13 -4 -16 -10z"/>
<path d="M1604 1485 c-10 -8 -14 -15 -8 -15 5 0 19 7 30 15 10 8 14 15 8 15
-5 0 -19 -7 -30 -15z"/>
<path d="M1405 1460 c3 -5 8 -10 11 -10 2 0 4 5 4 10 0 6 -5 10 -11 10 -5 0
-7 -4 -4 -10z"/>
<path d="M1294 1355 c-9 -6 -10 -15 -5 -24 7 -11 14 -10 40 8 17 12 31 24 31
26 0 7 -54 -1 -66 -10z m21 -5 c-3 -5 -12 -10 -18 -10 -7 0 -6 4 3 10 19 12
23 12 15 0z"/>
<path d="M1502 1328 c-35 -17 -61 -32 -58 -35 4 -4 123 51 135 63 11 11 -20
-1 -77 -28z"/>
<path d="M2810 1354 c0 -20 70 -135 121 -199 79 -100 110 -170 117 -262 5 -79
-4 -123 -70 -338 -40 -130 -98 -338 -94 -342 1 -1 7 2 14 6 7 4 23 55 36 112
13 57 31 120 39 139 l15 35 1 -29 c2 -48 22 -156 30 -156 8 0 30 104 38 175 2
22 10 89 18 149 7 60 12 114 10 120 -2 6 -6 47 -9 91 -6 81 -27 167 -47 191
-6 7 -7 19 -3 25 4 7 3 9 -3 6 -15 -10 -173 196 -173 226 0 16 62 -28 85 -60
12 -18 24 -31 27 -28 3 3 13 -6 22 -20 9 -14 21 -23 27 -19 28 17 84 -85 105
-190 l13 -71 -3 72 c-6 123 -68 222 -194 306 -66 44 -122 72 -122 61z"/>
<path d="M472 993 c-17 -57 -43 -185 -38 -190 2 -2 16 46 31 107 26 107 30
161 7 83z"/>
<path d="M1132 980 c0 -14 2 -19 5 -12 2 6 2 18 0 25 -3 6 -5 1 -5 -13z"/>
<path d="M1556 925 c-9 -26 -7 -32 5 -12 6 10 9 21 6 23 -2 3 -7 -2 -11 -11z"/>
<path d="M2771 764 c0 -11 3 -14 6 -6 3 7 2 16 -1 19 -3 4 -6 -2 -5 -13z"/>
<path d="M1129 639 c-10 -6 -4 -9 19 -9 17 0 32 2 32 4 0 9 -39 13 -51 5z"/>
<path d="M3111 589 c0 -19 -8 -86 -16 -149 -8 -62 -13 -115 -12 -117 2 -1 27
15 56 36 38 29 48 40 36 45 -11 4 -14 2 -9 -7 5 -9 4 -9 -5 -1 -7 6 -21 60
-31 120 -10 60 -18 93 -19 73z"/>
<path d="M1138 603 c12 -2 32 -2 45 0 12 2 2 4 -23 4 -25 0 -35 -2 -22 -4z"/>
<path d="M1163 563 c9 -2 23 -2 30 0 6 3 -1 5 -18 5 -16 0 -22 -2 -12 -5z"/>
<path d="M1155 530 c11 -5 31 -9 45 -9 20 -1 22 1 10 9 -8 5 -28 9 -45 9 -26
0 -27 -2 -10 -9z"/>
<path d="M1160 490 c36 -12 80 -12 80 0 0 6 -24 10 -52 9 -42 -1 -48 -3 -28
-9z"/>
<path d="M1180 461 l-35 -7 43 -7 c44 -8 62 -4 62 14 0 10 -16 10 -70 0z"/>
<path d="M1175 420 c-18 -8 1 -10 90 -10 3 0 6 3 8 8 3 10 -75 13 -98 2z"/>
<path d="M1341 418 c-1 -9 -4 -18 -8 -21 -5 -2 -2 -2 4 -1 13 3 41 -47 54 -99
5 -20 6 -8 2 33 -3 36 -9 67 -13 70 -4 3 -10 12 -13 20 -4 11 -6 10 -7 -5 l-1
-20 -9 20 c-7 16 -9 17 -9 3z"/>
<path d="M1200 391 l-45 -6 34 -8 c18 -4 50 -7 70 -7 34 1 35 2 17 15 -11 8
-22 14 -25 13 -3 0 -26 -4 -51 -7z"/>
<path d="M1174 352 c3 -5 25 -13 48 -18 l43 -8 -50 -5 -50 -6 65 -10 65 -9
-60 -6 -60 -5 55 -9 55 -9 -45 -13 -45 -12 45 -1 c33 -1 41 -4 30 -11 -8 -5
-25 -10 -38 -10 -13 0 -20 -4 -17 -10 7 -11 85 -13 132 -4 l30 6 -19 39 c-10
22 -27 49 -36 60 -9 11 -17 25 -17 32 0 8 -23 13 -68 15 -40 2 -66 -1 -63 -6z
m149 -89 c-7 -2 -19 -2 -25 0 -7 3 -2 5 12 5 14 0 19 -2 13 -5z"/>
<path d="M1416 325 c-3 -9 -6 -24 -5 -33 0 -9 5 -4 10 12 9 32 6 48 -5 21z"/>
<path d="M1072 274 c2 -37 8 -48 24 -55 20 -7 21 -5 13 34 -5 23 -8 48 -9 55
0 6 -7 12 -16 12 -12 0 -14 -10 -12 -46z"/>
<path d="M1460 278 c-3 -26 -1 -43 3 -39 5 5 7 26 5 47 l-3 39 -5 -47z"/>
<path d="M1290 190 c-67 -5 -72 -7 -50 -17 22 -10 23 -12 5 -13 -19 -1 126
-61 180 -74 28 -7 34 8 9 22 -9 5 -16 13 -16 18 -3 26 -12 44 -24 44 -8 0 -11
6 -8 15 4 9 1 14 -7 13 -8 -1 -48 -4 -89 -8z"/>
<path d="M1441 164 c0 -11 3 -14 6 -6 3 7 2 16 -1 19 -3 4 -6 -2 -5 -13z"/>
</g>
</svg>
