<svg width="91" height="79" viewBox="0 0 91 79" fill="none" xmlns="http://www.w3.org/2000/svg">
<path d="M90.1408 8.64905V21.2096H0V8.64905C0 3.87265 3.93765 0 8.79423 0H81.3466C86.2032 0 90.1408 3.87265 90.1408 8.64905Z" fill="#6C6CE5"/>
<path d="M39.7303 8.06105C41.5699 8.06694 43.0557 9.52894 43.0497 11.3267C43.0436 13.1244 41.5476 14.5771 39.708 14.5713C37.8684 14.5654 36.3827 13.1034 36.3887 11.3057C36.3956 9.50796 37.8908 8.05603 39.7303 8.06105Z" fill="#E48E66"/>
<path d="M90.1408 21.7236V69.4184C90.1408 74.1653 86.2032 78.0125 81.3466 78.0125H8.79423C3.93765 78.0125 0 74.1653 0 69.4184V21.7236H90.1408Z" fill="#E5E9EA"/>
<path d="M24.7655 8.01589C26.6051 8.02179 28.0917 9.4838 28.0857 11.2815C28.0797 13.0792 26.5836 14.532 24.744 14.5261C22.9045 14.5202 21.4179 13.0582 21.4238 11.2605C21.4264 10.3969 21.7803 9.5694 22.4063 8.96093C23.0333 8.35246 23.8826 8.01256 24.7655 8.01589Z" fill="#E48E66"/>
<path d="M9.80261 7.96877C11.643 7.97383 13.1305 9.43584 13.1245 11.2344C13.1193 13.0329 11.6233 14.4866 9.78286 14.4807C7.94242 14.4756 6.45496 13.0136 6.46096 11.2151C6.46269 10.3515 6.81652 9.52396 7.44345 8.91465C8.07039 8.30618 8.91889 7.96544 9.80261 7.96877Z" fill="#E48E66"/>
<path d="M35.5504 57.0007C35.1793 57.0016 34.8195 56.872 34.5365 56.6368L24.4115 48.2219C24.0622 47.9313 23.8613 47.5061 23.8613 47.0587C23.8613 46.6112 24.0622 46.186 24.4115 45.8962L34.5365 37.4814C35.195 36.9342 36.1827 37.0118 36.7425 37.6535C37.3031 38.2961 37.2245 39.2599 36.5661 39.8071L27.841 47.0587L36.567 54.3111C37.0665 54.7261 37.2473 55.4011 37.0211 56.0019C36.794 56.6027 36.2072 57.0016 35.5504 57.0007Z" fill="#D7AD41"/>
<path d="M54.5904 57.0007C53.9337 57.0016 53.3476 56.6027 53.1206 56.0019C52.8944 55.4011 53.0752 54.7261 53.5747 54.3111L62.3004 47.0587L53.5738 39.8071C52.9153 39.2599 52.8367 38.2961 53.3974 37.6535C53.9572 37.0118 54.945 36.9342 55.6035 37.4814L65.7292 45.8962C66.0786 46.186 66.2794 46.6112 66.2794 47.0587C66.2794 47.5061 66.0786 47.9313 65.7292 48.2219L55.6035 56.6368C55.3206 56.872 54.9616 57.0007 54.5904 57.0007Z" fill="#D7AD41"/>
<path d="M41.3075 63.6289C40.8432 63.6289 40.4046 63.424 40.1119 63.0723C39.8201 62.7197 39.7051 62.258 39.8004 61.814L46.0034 33.0089C46.1785 32.1955 46.9938 31.6758 47.8256 31.8471C48.6564 32.0183 49.1885 32.8158 49.0135 33.6293L42.8104 62.4343C42.6611 63.1294 42.0337 63.628 41.3075 63.6289Z" fill="#D7AD41"/>
</svg>
